<svg width="89" height="16" viewBox="0 0 89 16" fill="none" xmlns="http://www.w3.org/2000/svg">
<g filter="url(#filter0_i_1_1043)">
<path fill-rule="evenodd" clip-rule="evenodd" d="M7.42817 4.23928C9.04571 3.13656 10.7667 2.70707 12.1932 2.91681V0.349854H0.00537109V12.6525H4.17288C4.12339 12.5667 4.07747 12.4789 4.03526 12.3893C2.87987 9.95391 4.39981 6.30501 7.42817 4.23928Z" fill="url(#paint0_linear_1_1043)" fill-opacity="0.8"/>
<path fill-rule="evenodd" clip-rule="evenodd" d="M12.1263 4.32153C8.9114 4.32153 6.30518 6.92757 6.30518 10.1421C6.30518 10.5085 6.33916 10.8657 6.40391 11.2133C6.54985 11.841 6.88362 12.0366 7.19343 12.1697C7.30847 12.2191 7.42961 12.253 7.55364 12.2703C8.16909 12.3158 8.81286 12.1638 9.41943 11.7872C10.245 11.2739 10.8559 10.4381 11.1839 9.48887C10.1912 9.60322 9.20324 9.75467 8.22195 9.94291L8.2412 8.11826L14.7788 7.68122L14.7335 13.8478L12.7578 13.9809C12.7582 13.9777 12.7597 13.9751 12.7597 13.9722C12.7701 13.9073 12.7795 13.8423 12.7891 13.7778C12.8658 13.2618 12.9315 12.7338 12.9841 12.1965C13.014 11.8884 13.0417 11.5786 13.0627 11.2657C12.8089 11.5991 12.5245 11.9079 12.2131 12.1882C11.9139 12.4581 11.5917 12.7014 11.2503 12.9156C11.0448 13.0453 10.8327 13.1643 10.615 13.2724C10.1816 13.4878 9.72677 13.6573 9.25802 13.778C8.88516 13.8739 8.23082 13.919 7.71524 13.9396C8.7819 15.1792 10.3621 15.9626 12.1263 15.9626C15.3404 15.9626 17.9463 13.3573 17.9463 10.1423C17.9463 6.92757 15.3406 4.32153 12.1263 4.32153Z" fill="url(#paint1_linear_1_1043)" fill-opacity="0.8"/>
<path fill-rule="evenodd" clip-rule="evenodd" d="M53.7805 4.2465H50.3802V2.09204H60.3379V4.2465H56.8587V13.2031H53.7805V4.2465Z" fill="url(#paint2_linear_1_1043)" fill-opacity="0.8"/>
<path fill-rule="evenodd" clip-rule="evenodd" d="M61.4392 6.92386H61.4685C61.8073 5.64633 62.7615 5.2156 64.0537 5.24654V7.72385C63.8384 7.70917 63.6385 7.70917 63.4386 7.70917C61.9163 7.72385 61.3912 8.63252 61.4392 10.1091V13.2032H58.5141V7.46208C58.5141 6.77036 58.4982 6.3079 58.4213 5.47737H61.3912L61.4392 6.92386ZM70.2331 12.3564C69.5724 13.1255 68.8033 13.4333 67.8185 13.4333C66.1562 13.4333 64.9243 12.3564 64.9243 10.6478V5.47777H67.8478V10.0171C67.8788 10.7715 68.0632 11.5866 68.9719 11.5866C70.4188 11.5866 70.2331 10.0025 70.2331 9.90925V5.47737H73.1582V11.2169C73.1582 11.9102 73.1737 12.3711 73.2495 13.2032H70.2795L70.2331 12.3564ZM78.9248 7.86187C78.9248 7.6009 78.8791 7.36927 78.7403 7.21578C78.5852 7.04761 78.3389 6.93933 77.9392 6.93933C77.5092 6.93933 77.2466 7.18563 77.2466 7.63183C77.2466 8.20138 78.431 8.17005 80.263 8.7396C81.1863 9.03152 81.8169 9.60107 81.8169 10.8631C81.8169 12.9105 79.8941 13.4333 78.124 13.4333C76.2309 13.4333 74.3846 13.0481 74.4001 10.6942H77.1693C77.1237 10.9242 77.1994 11.186 77.3692 11.3867C77.539 11.5866 77.7845 11.7401 78.0617 11.7401C78.6313 11.7401 79.0469 11.5247 79.0469 11.0329C79.0469 9.66414 74.4766 10.4792 74.4766 7.67864C74.4766 5.77008 76.5077 5.24693 78.0462 5.24693C79.8767 5.24693 81.5702 5.72407 81.694 7.86227L78.9248 7.86187ZM83.6085 5.60627V4.43663L86.5312 3.32886V5.60627H88.2248V7.45296H86.5312V10.5153C86.5312 10.7152 86.4087 11.7151 87.0857 11.7151C87.4708 11.7151 87.8718 11.7151 88.2097 11.6695V13.4071C87.5474 13.5308 87.0702 13.5622 86.6403 13.5622C84.6548 13.5622 83.4542 13.2857 83.6081 10.9151V7.45296H82.1005V5.60627H83.6085ZM29.9909 9.04818H27.7277V6.89292H33.0691V12.8332C30.5755 13.2036 30.098 13.4336 27.4207 13.4336C23.959 13.3254 21.8494 11.1253 21.8494 7.6477C21.8494 4.1693 23.959 1.96884 27.4207 1.86095C30.1134 1.78361 32.9457 2.18381 32.9921 5.41589H29.9139C29.7604 4.33906 28.914 4.01542 27.8987 4.01542C25.82 4.01542 25.0819 5.84663 25.0819 7.6477C25.0819 9.8331 26.1749 11.2792 28.3889 11.2792C28.9592 11.2792 29.5288 11.1864 29.9909 11.0948V9.04818ZM37.0028 8.35567C37.0801 7.47794 37.3264 6.75529 38.3422 6.70809C38.7876 6.67795 39.1255 6.87785 39.3571 7.2007C39.588 7.52435 39.7117 7.93882 39.7117 8.35567H37.0028ZM42.481 9.92511C42.481 7.048 41.4803 5.24693 38.3422 5.24693C36.0184 5.24693 34.1868 6.63194 34.1868 9.07832C34.1868 12.1105 35.4183 13.4333 38.5107 13.4333C39.4186 13.4333 40.2809 13.2635 40.9583 12.8328C41.696 12.4012 42.3267 11.6786 42.4199 10.6783H39.7117C39.6038 11.4017 39.0958 11.7861 38.2811 11.7861C37.1872 11.7861 36.9266 10.9238 36.9425 9.92472L42.481 9.92511ZM46.5023 9.3393C46.5023 8.24779 46.7645 6.93933 47.9952 6.93933C49.2259 6.93933 49.4881 8.24779 49.4881 9.3393C49.4881 10.4332 49.2259 11.7401 47.9952 11.7401C46.7645 11.7401 46.5023 10.4332 46.5023 9.3393ZM47.9952 5.24693C45.5794 5.24693 43.5019 6.49352 43.5019 9.3393C43.5019 12.1879 45.579 13.4333 47.9952 13.4333C50.4115 13.4333 52.4886 12.1875 52.4886 9.3393C52.4882 6.49312 50.4111 5.24693 47.9952 5.24693Z" fill="url(#paint3_linear_1_1043)" fill-opacity="0.8"/>
</g>
<defs>
<filter id="filter0_i_1_1043" x="0.00537109" y="0.349854" width="88.6098" height="15.6128" filterUnits="userSpaceOnUse" color-interpolation-filters="sRGB">
<feFlood flood-opacity="0" result="BackgroundImageFix"/>
<feBlend mode="normal" in="SourceGraphic" in2="BackgroundImageFix" result="shape"/>
<feColorMatrix in="SourceAlpha" type="matrix" values="0 0 0 0 0 0 0 0 0 0 0 0 0 0 0 0 0 0 127 0" result="hardAlpha"/>
<feOffset dx="0.390321"/>
<feGaussianBlur stdDeviation="0.19516"/>
<feComposite in2="hardAlpha" operator="arithmetic" k2="-1" k3="1"/>
<feColorMatrix type="matrix" values="0 0 0 0 0 0 0 0 0 0 0 0 0 0 0 0 0 0 0.1 0"/>
<feBlend mode="normal" in2="shape" result="effect1_innerShadow_1_1043"/>
</filter>
<linearGradient id="paint0_linear_1_1043" x1="12.1932" y1="6.50115" x2="0.00537109" y2="6.50115" gradientUnits="userSpaceOnUse">
<stop stop-color="#E3E3E3"/>
<stop offset="1" stop-color="#D0D0D0"/>
</linearGradient>
<linearGradient id="paint1_linear_1_1043" x1="17.9463" y1="10.1421" x2="6.30518" y2="10.1421" gradientUnits="userSpaceOnUse">
<stop stop-color="#E3E3E3"/>
<stop offset="1" stop-color="#D0D0D0"/>
</linearGradient>
<linearGradient id="paint2_linear_1_1043" x1="60.3379" y1="7.64755" x2="50.3802" y2="7.64755" gradientUnits="userSpaceOnUse">
<stop stop-color="#E3E3E3"/>
<stop offset="1" stop-color="#D0D0D0"/>
</linearGradient>
<linearGradient id="paint3_linear_1_1043" x1="88.2248" y1="7.70734" x2="21.8494" y2="7.70734" gradientUnits="userSpaceOnUse">
<stop stop-color="#E3E3E3"/>
<stop offset="1" stop-color="#D0D0D0"/>
</linearGradient>
</defs>
</svg>
