<svg width="88" height="19" viewBox="0 0 88 19" fill="none" xmlns="http://www.w3.org/2000/svg">
<g filter="url(#filter0_i_1_1050)">
<path d="M21.5249 15.2513C19.2715 15.2513 17.814 14.4049 17.1566 13.8883L17.1094 13.841L17.1566 13.7476L18.0965 12.245L18.1437 12.1516L18.2372 12.1988C18.801 12.622 19.9277 13.2793 21.5348 13.2793C22.8978 13.2793 23.6485 12.6682 23.6485 11.6822C23.6485 10.5544 22.756 10.2258 21.0654 9.66186L20.8785 9.61459C19.2341 9.0507 17.6843 8.20542 17.6843 5.95095C17.6843 3.93061 19.2231 2.61597 21.6766 2.61597C23.0857 2.61597 24.2135 2.89736 25.1522 3.46235L25.2457 3.50962L25.1984 3.60305L24.4466 5.14194L24.3993 5.23537L24.3059 5.1881C23.5078 4.76491 22.6153 4.57695 21.6755 4.57695C20.8291 4.57695 19.8068 4.81218 19.8068 5.93996C19.8068 7.02047 20.6048 7.30297 22.2031 7.8086C23.9398 8.3725 25.8305 9.21778 25.8305 11.7075C25.8777 13.9147 24.2333 15.2304 21.5436 15.2304L21.5249 15.2513ZM27.5375 18.3038C27.1143 18.3038 26.7395 18.2565 26.269 18.1631H26.1756V18.0697L26.4108 16.6132V16.5198H26.6461C26.8813 16.5671 27.0693 16.5671 27.3034 16.5671C28.1498 16.5671 28.6664 16.2373 29.0401 15.5338L25.8458 6.08066H28.2421V6.12792L30.0635 12.7231L31.7079 6.14661V6.05318H33.9613L33.8678 6.24004L31.0495 15.447C30.4856 17.42 29.3589 18.3126 27.5265 18.3126L27.5375 18.3038ZM46.7956 15.1084H44.5422V9.09577C44.5422 8.34392 44.4015 7.82729 43.6496 7.82729C43.133 7.82729 42.5219 8.15705 41.9129 8.71984V15.1084H39.6595V9.09577C39.6595 8.34392 39.5188 7.82729 38.767 7.82729C38.2031 7.82729 37.593 8.15705 37.0302 8.76711V15.1095H34.7219V6.09055H36.1311V6.13781L36.507 7.34694C37.4468 6.36095 38.3757 5.84433 39.4199 5.84433C40.6884 5.84433 41.205 6.54782 41.5337 7.20734C42.1448 6.55002 43.1308 5.84433 44.352 5.84433C46.3724 5.84433 46.7945 7.58107 46.7945 9.03861V14.9567L46.7956 15.1084ZM50.6944 15.2513C49.05 15.2513 47.8761 14.1708 47.8761 12.6682C47.8761 11.6822 48.2058 10.9776 48.9566 10.5071C49.7084 9.99052 50.9297 9.61459 52.8555 9.3332V9.09797C52.8555 8.11198 52.4795 7.73496 51.5397 7.73496C50.6933 7.73496 49.8953 8.06472 49.0973 8.43845L49.0039 8.48571L48.9566 8.39228L48.2058 6.93584L48.2993 6.88857C49.427 6.18508 50.5065 5.85532 51.7288 5.85532C53.936 5.85532 55.111 6.9831 55.111 9.1903V15.1084H53.7018L53.6546 15.0611L53.2787 14.1686C52.762 14.6852 51.8695 15.2491 50.6955 15.2491L50.6944 15.2513ZM52.8555 10.8358C51.399 11.1172 50.6483 11.3997 50.3658 11.7756C50.1789 12.0109 50.1305 12.1516 50.1305 12.5275C50.1305 13.1848 50.5065 13.5607 51.1638 13.5607C51.7277 13.5607 52.3377 13.3255 52.8544 12.9034L52.8555 10.8358ZM64.4114 15.1084H62.158V9.09577C62.158 8.20322 61.8283 7.82729 61.1248 7.82729C60.5136 7.82729 59.809 8.20322 59.2924 8.76711V15.1095H57.039V6.09055H58.4482V6.13781L58.8241 7.34694C59.764 6.36095 60.7499 5.84433 61.8305 5.84433C63.521 5.84433 64.4136 6.92484 64.4136 9.03861V14.9567L64.4114 15.1084ZM69.1555 15.2513C67.3704 15.2513 66.5251 14.3588 66.5251 12.5736V7.73276H65.2094V6.08835H66.5724L66.9956 3.64592V3.55249H68.828V6.08945H70.6966V7.73386H68.828V12.478C68.828 13.2299 68.9687 13.5113 69.7205 13.5113C70.0423 13.5041 70.3603 13.4408 70.6604 13.3244L70.7538 13.2771V13.3706L71.0352 14.827V14.9204L70.9417 14.9677C70.6604 15.015 70.0019 15.2491 69.1566 15.2491L69.1555 15.2513ZM75.4034 15.2513C72.8665 15.2513 71.3166 13.4662 71.3166 10.6478C71.3166 7.78222 72.8555 5.90368 75.2737 5.90368C77.692 5.90368 79.0769 7.64043 79.0769 10.6478V11.259H73.6755C73.8162 12.7154 74.379 13.3728 75.5441 13.3728C76.5301 13.3728 77.1413 12.9968 77.8458 12.5747L77.9393 12.5275L77.9865 12.6209L78.8329 13.9367L78.8802 14.0301L78.8329 14.0774C77.9404 14.7347 77.0962 15.2513 75.4034 15.2513ZM73.6667 9.80256H76.7203C76.673 8.29995 76.2036 7.59536 75.2177 7.59536C74.3251 7.59536 73.8085 8.34721 73.6788 9.80256H73.6667ZM84.0453 15.2513C81.039 15.2513 80.0058 12.855 80.0058 10.6478C80.0058 8.44065 81.0863 5.90368 84.0453 5.90368C85.2545 5.90368 86.1591 6.18508 86.9582 6.88967L87.0055 6.93693L86.9582 6.9842L86.0184 8.34721L85.9712 8.44064L85.8777 8.39338C85.3611 8.01745 84.8917 7.78222 84.0926 7.78222C82.9187 7.78222 82.3559 8.72204 82.3559 10.6478C82.3559 12.4802 82.967 13.4178 84.141 13.4178C84.939 13.4178 85.4567 13.1364 85.9734 12.666L86.0668 12.6187L86.114 12.7121L87.1 13.9806L87.1473 14.0279L87.1 14.0752C86.2536 14.8732 85.3149 15.2491 84.0464 15.2491L84.0453 15.2513Z" fill="url(#paint0_linear_1_1050)" fill-opacity="0.8"/>
<path fill-rule="evenodd" clip-rule="evenodd" d="M7.03275 16.1723C3.16555 16.1723 0.03125 13.0375 0.03125 9.17078C0.03125 5.30405 3.16602 2.16928 7.03275 2.16928C8.59407 2.16928 10.0361 2.68038 11.2005 3.54439H11.2484V3.1637H12.1022V2.66601H12.6244V3.16442H12.1028V3.68584H12.6249V3.1637L12.6368 3.19313H13.1058V4.27729H12.6956V4.68741H12.4107C13.4243 5.90197 14.0342 7.46517 14.0342 9.17078C14.0342 13.0375 10.87 16.1723 7.03275 16.1723ZM9.73508 5.20473V5.30259H9.38382V5.82474H9.00313C8.59301 6.43992 7.53827 8.40224 7.21596 9.194C6.07341 7.58247 5.16536 6.96302 4.46188 6.73327C4.08119 6.61603 3.60746 7.02615 4.25682 7.67076C5.57738 9.12626 6.07999 10.3544 6.49422 11.3665C6.53025 11.4546 6.56561 11.541 6.60078 11.6258C6.83527 12.1826 7.86058 12.2704 8.09507 11.7136C8.53462 10.5127 9.17923 9.16457 9.94062 8.08088V7.52409H10.3507V7.00194H10.7903V6.41619H10.9733C11.5357 7.21662 11.8379 8.16693 11.8379 9.17078C11.8406 9.80225 11.7176 10.4279 11.4761 11.0114C11.2347 11.5949 10.8796 12.1245 10.4314 12.5695C9.52291 13.4775 8.32197 13.9759 7.03275 13.9759C5.77295 13.9759 4.57154 13.478 3.66349 12.5695C2.75543 11.6609 2.25701 10.46 2.25701 9.17078C2.25701 7.88155 2.75543 6.68014 3.66349 5.77208C4.54259 4.86402 5.74352 4.36561 7.03275 4.36561C7.99874 4.36561 8.93041 4.65866 9.73508 5.20473ZM14.6499 1.08464H15.2067V1.64144H14.6499V1.08464ZM14.6499 0H15.2067V0.556797H14.6499V0ZM13.0981 1.6115H12.6249V2.66623H13.1233V2.13368H13.5961V1.64118H14.094V1.08438H13.0981V1.6115ZM13.6212 2.1676H14.207V2.68974H13.6212V2.1676ZM11.6 2.16807H12.0984V2.66648H11.6V2.16807ZM13.0934 2.66648H13.5918V3.16489H13.0934V2.66648ZM14.0949 0.527108H14.6171V1.04925H14.0949V0.527108Z" fill="url(#paint1_linear_1_1050)" fill-opacity="0.8"/>
</g>
<defs>
<filter id="filter0_i_1_1050" x="0.03125" y="0" width="87.6392" height="18.3125" filterUnits="userSpaceOnUse" color-interpolation-filters="sRGB">
<feFlood flood-opacity="0" result="BackgroundImageFix"/>
<feBlend mode="normal" in="SourceGraphic" in2="BackgroundImageFix" result="shape"/>
<feColorMatrix in="SourceAlpha" type="matrix" values="0 0 0 0 0 0 0 0 0 0 0 0 0 0 0 0 0 0 127 0" result="hardAlpha"/>
<feOffset dx="0.523221"/>
<feGaussianBlur stdDeviation="0.26161"/>
<feComposite in2="hardAlpha" operator="arithmetic" k2="-1" k3="1"/>
<feColorMatrix type="matrix" values="0 0 0 0 0 0 0 0 0 0 0 0 0 0 0 0 0 0 0.1 0"/>
<feBlend mode="normal" in2="shape" result="effect1_innerShadow_1_1050"/>
</filter>
<linearGradient id="paint0_linear_1_1050" x1="87.1473" y1="10.4643" x2="17.1094" y2="10.4643" gradientUnits="userSpaceOnUse">
<stop stop-color="#E3E3E3"/>
<stop offset="1" stop-color="#D0D0D0"/>
</linearGradient>
<linearGradient id="paint1_linear_1_1050" x1="15.2067" y1="8.08613" x2="0.03125" y2="8.08613" gradientUnits="userSpaceOnUse">
<stop stop-color="#E3E3E3"/>
<stop offset="1" stop-color="#D0D0D0"/>
</linearGradient>
</defs>
</svg>
