<svg width="42" height="17" viewBox="0 0 42 17" fill="none" xmlns="http://www.w3.org/2000/svg">
<path d="M17.1289 9.34617L18.3384 7.89205C19.0994 8.59873 20.0915 8.99283 21.1243 9.0336C21.9669 9.0336 22.4697 8.69386 22.4697 8.15026V8.12308C22.4697 7.60667 22.1572 7.33487 20.5943 6.94076C18.7053 6.46512 17.4958 5.93511 17.4958 4.08689V4.0597C17.4958 2.36097 18.8548 1.2466 20.771 1.2466C22.0349 1.21942 23.2579 1.64071 24.2364 2.42892L23.1628 3.97817C22.4697 3.43457 21.6136 3.10841 20.7302 3.05405C19.942 3.05405 19.5343 3.42098 19.5343 3.86945V3.89663C19.5343 4.50817 19.9284 4.71202 21.5456 5.11972C23.4346 5.60895 24.5082 6.28845 24.5082 7.91923V7.94641C24.5082 9.80823 23.0949 10.8411 21.0836 10.8411C19.643 10.8411 18.2297 10.3111 17.1289 9.34617Z" fill="url(#paint0_linear_1_1058)" fill-opacity="0.8"/>
<path d="M25.5422 9.34617L26.7517 7.89205C27.5128 8.59873 28.5048 8.99283 29.5377 9.0336C30.3802 9.0336 30.8831 8.69386 30.8831 8.15026V8.12308C30.8831 7.60667 30.5705 7.33487 29.0077 6.94076C27.1187 6.46512 25.9092 5.93511 25.9092 4.08689V4.0597C25.9092 2.36097 27.2682 1.2466 29.1843 1.2466C30.4482 1.21942 31.6713 1.64071 32.6498 2.42892L31.5761 3.97817C30.8831 3.43457 30.0269 3.10841 29.1436 3.05405C28.3553 3.05405 27.9476 3.42098 27.9476 3.86945V3.89663C27.9476 4.50817 28.3418 4.71202 29.9589 5.11972C31.8479 5.60895 32.9216 6.28845 32.9216 7.91923V7.94641C32.9216 9.80823 31.5082 10.8411 29.4969 10.8411C28.0428 10.8411 26.643 10.3111 25.5422 9.34617Z" fill="url(#paint1_linear_1_1058)" fill-opacity="0.8"/>
<path d="M34.7275 1.35522H36.7796V8.82966H41.4409V10.7051H34.7275V1.35522Z" fill="url(#paint2_linear_1_1058)" fill-opacity="0.8"/>
<path d="M16.8848 15.4345L17.3468 14.8773C17.6458 15.1491 18.0263 15.2986 18.4204 15.3122C18.7466 15.3122 18.9368 15.1899 18.9368 14.9725V14.9589C18.9368 14.755 18.8145 14.6599 18.2166 14.4968C17.4963 14.3066 17.0207 14.1163 17.0207 13.3961V13.3825C17.0343 12.7573 17.5507 12.2681 18.1758 12.2953C18.203 12.2953 18.2437 12.2953 18.2709 12.3089C18.7602 12.2953 19.2222 12.4583 19.6027 12.7709L19.195 13.3689C18.9232 13.165 18.5971 13.0291 18.2573 13.0155C17.9584 13.0155 17.7953 13.1514 17.7953 13.3281V13.3417C17.7953 13.5727 17.9448 13.6543 18.5699 13.8173C19.3038 14.0076 19.7115 14.2658 19.7115 14.8909V14.9045C19.7115 15.6248 19.1679 16.0189 18.3932 16.0189C17.8496 16.0053 17.3061 15.8015 16.8848 15.4345Z" fill="url(#paint3_linear_1_1058)" fill-opacity="0.8"/>
<path d="M20.4194 12.3633H23.1238V13.07H21.1941V13.8038H22.8928V14.5105H21.1941V15.2715H23.151V15.9782H20.4194V12.3633Z" fill="url(#paint4_linear_1_1058)" fill-opacity="0.8"/>
<path d="M23.7065 14.1705C23.6929 13.1513 24.4947 12.3223 25.5003 12.2951C25.5275 12.2951 25.5547 12.2951 25.5819 12.2951C26.1119 12.268 26.6283 12.4718 26.9952 12.8523L26.4924 13.4367C26.2478 13.1921 25.9216 13.0426 25.5683 13.029C24.9839 13.0426 24.5083 13.5318 24.5219 14.1162C24.5219 14.1298 24.5219 14.1434 24.5219 14.1434V14.1569C24.4811 14.7413 24.9432 15.2441 25.5275 15.2849C25.5411 15.2849 25.5547 15.2849 25.5683 15.2849C25.9216 15.2849 26.275 15.1354 26.5196 14.8636L27.0224 15.3664C26.6555 15.8013 26.1119 16.0324 25.5547 16.0052C24.549 16.0188 23.7336 15.217 23.7065 14.2249C23.7065 14.2113 23.7065 14.1977 23.7065 14.1705Z" fill="url(#paint5_linear_1_1058)" fill-opacity="0.8"/>
<path d="M27.5937 14.4154V12.3633H28.3819V14.3882C28.3819 14.9725 28.6809 15.2715 29.1565 15.2715C29.6322 15.2715 29.9311 14.9725 29.9311 14.4154V12.3633H30.7193V14.3882C30.8145 15.1764 30.2573 15.9102 29.4691 16.0054C29.3604 16.019 29.2516 16.019 29.1429 16.0054C28.3547 16.0869 27.6616 15.5161 27.5801 14.7279C27.5801 14.6328 27.5801 14.5241 27.5937 14.4154Z" fill="url(#paint6_linear_1_1058)" fill-opacity="0.8"/>
<path d="M31.5344 12.363H33.1788C33.5593 12.3359 33.9398 12.4718 34.2252 12.73C34.4291 12.9474 34.5514 13.2464 34.5378 13.5454V13.5589C34.565 14.0618 34.2524 14.5238 33.7632 14.6733L34.6465 15.9508H33.7224L32.9478 14.7956H32.3226V15.9508H31.5344V12.363ZM33.1244 14.1161C33.505 14.1161 33.736 13.9123 33.736 13.6133V13.5997C33.736 13.26 33.505 13.0833 33.1108 13.0833H32.3226V14.1161H33.1244Z" fill="url(#paint7_linear_1_1058)" fill-opacity="0.8"/>
<path d="M35.2578 12.3633H37.9622V13.07H36.0324V13.8038H37.7312V14.5105H36.0324V15.2715H37.9894V15.9782H35.2578V12.3633Z" fill="url(#paint8_linear_1_1058)" fill-opacity="0.8"/>
<path d="M38.6975 12.3632H40.0973C41.0893 12.2952 41.9319 13.0427 41.9998 14.0347C41.9998 14.0755 41.9998 14.1163 41.9998 14.157V14.1706C41.9998 15.1627 41.198 15.9645 40.206 15.9781C40.1652 15.9781 40.1244 15.9781 40.0973 15.9781H38.6975V12.3632ZM40.0973 15.2442C40.668 15.2714 41.1437 14.8501 41.1845 14.2794C41.1845 14.2386 41.1845 14.2114 41.1845 14.1706V14.157C41.2116 13.5863 40.7768 13.097 40.206 13.0699C40.1652 13.0699 40.138 13.0699 40.0973 13.0699H39.4857V15.2306L40.0973 15.2442Z" fill="url(#paint9_linear_1_1058)" fill-opacity="0.8"/>
<path fill-rule="evenodd" clip-rule="evenodd" d="M7.2106 15.8271C5.33499 15.0561 0.961027 12.7801 0.961027 8.29496L0.953613 2.29003C0.953613 2.06021 1.1093 1.86005 1.3317 1.80815L7.3737 0.310626C7.44784 0.288385 7.52939 0.288385 7.61094 0.310626L13.6529 1.80815C13.8753 1.86005 14.031 2.06021 14.031 2.29003V8.29496C14.031 12.7801 9.66447 15.0561 7.78145 15.8271L7.71472 15.8567C7.58128 15.9234 7.41818 15.9234 7.27733 15.8567L7.2106 15.8271ZM7.50714 14.8707C9.2419 14.1442 13.045 12.1129 13.045 8.29496V2.67553L7.50714 1.30403L1.96926 2.67553V8.29496C1.96926 12.1129 5.76497 14.1442 7.50714 14.8707ZM5.46849 5.32211C5.46849 4.21008 6.37293 3.30564 7.48496 3.30564C8.59698 3.30564 9.49401 4.20267 9.51626 5.31469V5.8114C9.91658 5.86329 10.228 6.20431 10.228 6.61206V10.1409C10.228 10.5857 9.86469 10.949 9.41988 10.949H5.60193C5.15712 10.949 4.79386 10.5857 4.79386 10.1409V6.61206C4.79386 6.21914 5.07557 5.88553 5.46849 5.81881V5.32211ZM8.62664 5.32211C8.62664 4.69196 8.1151 4.18043 7.48496 4.18043C6.85481 4.18043 6.34328 4.69196 6.35069 5.32211V5.80398H8.62664V5.32211ZM5.66865 10.0667H9.33833V6.68619H5.66865V10.0667ZM8.80456 7.88718L8.19665 7.27927L7.27738 8.19854L6.81033 7.73149L6.20242 8.3394L6.66947 8.80645L7.27738 9.41436L7.88529 8.80645L8.80456 7.88718Z" fill="url(#paint10_linear_1_1058)" fill-opacity="0.8"/>
<defs>
<linearGradient id="paint0_linear_1_1058" x1="24.5082" y1="6.04321" x2="17.1289" y2="6.04321" gradientUnits="userSpaceOnUse">
<stop stop-color="#E3E3E3"/>
<stop offset="1" stop-color="#D0D0D0"/>
</linearGradient>
<linearGradient id="paint1_linear_1_1058" x1="32.9215" y1="6.04321" x2="25.5422" y2="6.04321" gradientUnits="userSpaceOnUse">
<stop stop-color="#E3E3E3"/>
<stop offset="1" stop-color="#D0D0D0"/>
</linearGradient>
<linearGradient id="paint2_linear_1_1058" x1="41.4409" y1="6.03014" x2="34.7275" y2="6.03014" gradientUnits="userSpaceOnUse">
<stop stop-color="#E3E3E3"/>
<stop offset="1" stop-color="#D0D0D0"/>
</linearGradient>
<linearGradient id="paint3_linear_1_1058" x1="19.7115" y1="14.1565" x2="16.8848" y2="14.1565" gradientUnits="userSpaceOnUse">
<stop stop-color="#E3E3E3"/>
<stop offset="1" stop-color="#D0D0D0"/>
</linearGradient>
<linearGradient id="paint4_linear_1_1058" x1="23.151" y1="14.1707" x2="20.4194" y2="14.1707" gradientUnits="userSpaceOnUse">
<stop stop-color="#E3E3E3"/>
<stop offset="1" stop-color="#D0D0D0"/>
</linearGradient>
<linearGradient id="paint5_linear_1_1058" x1="27.0224" y1="14.15" x2="23.7063" y2="14.15" gradientUnits="userSpaceOnUse">
<stop stop-color="#E3E3E3"/>
<stop offset="1" stop-color="#D0D0D0"/>
</linearGradient>
<linearGradient id="paint6_linear_1_1058" x1="30.7299" y1="14.1894" x2="27.5801" y2="14.1894" gradientUnits="userSpaceOnUse">
<stop stop-color="#E3E3E3"/>
<stop offset="1" stop-color="#D0D0D0"/>
</linearGradient>
<linearGradient id="paint7_linear_1_1058" x1="34.6465" y1="14.1552" x2="31.5344" y2="14.1552" gradientUnits="userSpaceOnUse">
<stop stop-color="#E3E3E3"/>
<stop offset="1" stop-color="#D0D0D0"/>
</linearGradient>
<linearGradient id="paint8_linear_1_1058" x1="37.9894" y1="14.1707" x2="35.2578" y2="14.1707" gradientUnits="userSpaceOnUse">
<stop stop-color="#E3E3E3"/>
<stop offset="1" stop-color="#D0D0D0"/>
</linearGradient>
<linearGradient id="paint9_linear_1_1058" x1="41.9998" y1="14.1685" x2="38.6975" y2="14.1685" gradientUnits="userSpaceOnUse">
<stop stop-color="#E3E3E3"/>
<stop offset="1" stop-color="#D0D0D0"/>
</linearGradient>
<linearGradient id="paint10_linear_1_1058" x1="14.031" y1="8.10035" x2="0.953613" y2="8.10035" gradientUnits="userSpaceOnUse">
<stop stop-color="#E3E3E3"/>
<stop offset="1" stop-color="#D0D0D0"/>
</linearGradient>
</defs>
</svg>
