<svg width="73" height="16" viewBox="0 0 73 16" fill="none" xmlns="http://www.w3.org/2000/svg">
<g filter="url(#filter0_i_1_1027)">
<path d="M0 0.349854H0.018726C2.27053 1.39383 4.52468 2.43312 6.7718 3.48646C6.74371 4.50469 6.74371 5.52292 6.7718 6.54115C5.43757 5.94425 4.11738 5.31225 2.78784 4.70131C2.79954 6.81735 2.78784 8.93105 2.79486 11.0471C4.12207 11.6627 5.45161 12.2713 6.77414 12.8986C6.75073 13.9192 6.73669 14.9421 6.78584 15.9627C4.51765 14.9234 2.26351 13.863 0 12.8214C0 8.66421 0 4.50703 0 0.349854Z" fill="url(#paint0_linear_1_1027)" fill-opacity="0.8"/>
<path d="M13.4972 0.349854H13.5347C13.5347 4.51171 13.5487 8.67591 13.53 12.8378C11.2735 13.863 9.03109 14.921 6.78397 15.9627C6.73481 14.9421 6.74885 13.9192 6.77226 12.8986C8.10181 12.2783 9.4337 11.658 10.7656 11.0471C10.7726 8.93105 10.7656 6.81501 10.7703 4.69663C9.43838 5.31225 8.11585 5.95128 6.76992 6.54115C6.74417 5.52292 6.74417 4.50469 6.76992 3.48646C9.01002 2.43546 11.2665 1.41958 13.4972 0.349854Z" fill="url(#paint1_linear_1_1027)" fill-opacity="0.8"/>
<path d="M17.9491 2.30345C19.6381 3.55546 21.3097 4.83588 22.9899 6.101C24.6746 4.83806 26.3417 3.55328 28.0351 2.30127C28.0417 6.19714 28.0286 10.0952 28.0264 13.9911C27.1698 13.9845 26.3155 13.9911 25.4612 13.9889C25.4612 11.7667 25.4612 9.54675 25.4612 7.3246C24.6352 7.93203 23.8137 8.55257 22.9877 9.15782C22.1662 8.54383 21.3446 7.92985 20.5165 7.32023C20.5099 9.54238 20.5252 11.7602 20.51 13.9823C19.6556 13.9758 18.8013 13.9823 17.9469 13.9758C17.9491 10.0843 17.9404 6.19277 17.9513 2.30127L17.9491 2.30345Z" fill="url(#paint2_linear_1_1027)" fill-opacity="0.8"/>
<path d="M41.1955 2.37351C41.9952 2.37133 42.7949 2.3757 43.5946 2.36914C45.2093 6.24097 46.8022 10.1215 48.4082 13.9956C47.5058 13.9956 46.6034 13.9956 45.701 13.9956C45.4344 13.3335 45.1744 12.6714 44.9056 12.0094C43.5684 12.0116 42.2312 12.0094 40.8918 12.0094C40.6252 12.6671 40.3608 13.3269 40.0964 13.9846C39.1962 13.9846 38.296 13.9846 37.3958 13.9846C38.875 10.6263 40.3521 7.26574 41.8291 3.90957C41.6194 3.39609 41.4052 2.8848 41.1955 2.37133V2.37351ZM42.9129 6.97513C42.5546 7.87317 42.1853 8.76903 41.8291 9.66706C42.548 9.66925 43.2669 9.66925 43.9857 9.66706C43.6339 8.76903 43.2734 7.87099 42.9129 6.97513Z" fill="url(#paint3_linear_1_1027)" fill-opacity="0.8"/>
<path d="M51.6152 2.57243C52.5984 2.26871 53.6844 2.34519 54.6348 2.73194C54.3158 3.4508 53.9793 4.16312 53.656 4.88198C53.2102 4.70718 52.6487 4.48868 52.216 4.81425C51.696 5.24688 51.9145 5.99197 51.873 6.57973H53.409C53.409 7.31389 53.4156 8.05024 53.4025 8.78659C52.8934 8.78659 52.3821 8.78659 51.873 8.78659C51.873 10.5215 51.873 12.2586 51.873 13.9935C51.0842 13.9935 50.2954 13.9935 49.5066 13.9935C49.5066 12.2542 49.5066 10.5171 49.5066 8.77785C49.1592 8.77566 48.814 8.77785 48.4688 8.77566V6.58192C48.8162 6.57973 49.1658 6.58192 49.5132 6.58192C49.5132 5.82154 49.4542 5.02838 49.7579 4.30951C50.0682 3.48358 50.7739 2.83245 51.6152 2.57243Z" fill="url(#paint4_linear_1_1027)" fill-opacity="0.8"/>
<path d="M31.6819 5.58562C32.9099 5.08963 34.3586 5.06341 35.5669 5.62932C36.3972 6.01607 37.0243 6.71746 37.5268 7.46691C36.8779 7.85803 36.2224 8.24259 35.5691 8.62934C35.1626 7.94761 34.4984 7.32489 33.6506 7.35985C32.4183 7.28993 31.3083 8.39991 31.3782 9.63007C31.3389 10.8427 32.4423 11.9112 33.6528 11.8435C34.494 11.8675 35.167 11.2601 35.5669 10.5762C36.2158 10.9607 36.8691 11.3453 37.5159 11.7342C37.057 12.499 36.4015 13.1567 35.5887 13.5369C33.9696 14.3191 31.8808 14.0831 30.5195 12.8901C29.4117 11.9221 28.8567 10.3686 29.0949 8.91776C29.3156 7.46254 30.3097 6.14061 31.6797 5.58562H31.6819Z" fill="url(#paint5_linear_1_1027)" fill-opacity="0.8"/>
<path d="M55.0392 6.95772C56.4354 5.0808 59.3917 4.68968 61.2315 6.13179C62.6059 7.10412 63.1346 8.86742 63.0166 10.4887C60.871 10.4887 58.7296 10.4931 56.5862 10.4865C56.9292 11.5025 58.0523 12.158 59.1055 11.9177C59.6102 11.8325 60.0363 11.5288 60.4143 11.1988C61.0567 11.5484 61.6991 11.8958 62.3393 12.252C61.6641 12.9862 60.8207 13.587 59.8484 13.8449C58.1069 14.3146 56.0574 13.7291 54.9911 12.2323C53.8418 10.7137 53.8615 8.45445 55.0414 6.95991L55.0392 6.95772ZM56.6452 8.5353C57.8884 8.54404 59.1339 8.54185 60.3771 8.5353C60.0407 7.83828 59.3589 7.29203 58.5592 7.2964C57.7245 7.22866 56.9554 7.77273 56.6452 8.53311V8.5353Z" fill="url(#paint6_linear_1_1027)" fill-opacity="0.8"/>
<path d="M64.435 7.29398C65.5494 5.44547 68.1277 4.73971 70.057 5.66397C71.1605 6.16433 72.0388 7.14103 72.3972 8.30345C72.6354 9.00703 72.6441 9.75867 72.6375 10.4906C70.494 10.4994 68.3505 10.4754 66.2071 10.5038C66.5479 11.4652 67.5771 12.1141 68.5931 11.948C69.1481 11.8869 69.6266 11.57 70.0374 11.2073C70.6754 11.5526 71.3112 11.9043 71.9514 12.2474C71.167 13.1651 70.0592 13.8293 68.8531 13.9735C67.3629 14.1615 65.7548 13.6371 64.7868 12.4593C63.5741 11.0478 63.4212 8.85845 64.435 7.29835V7.29398ZM66.2682 8.54162C67.5115 8.55036 68.757 8.55036 70.0024 8.54162C69.6506 7.78561 68.8749 7.23499 68.0228 7.30054C67.2384 7.29398 66.5632 7.83586 66.2682 8.54162Z" fill="url(#paint7_linear_1_1027)" fill-opacity="0.8"/>
</g>
<defs>
<filter id="filter0_i_1_1027" x="0" y="0.349854" width="73.0292" height="15.6128" filterUnits="userSpaceOnUse" color-interpolation-filters="sRGB">
<feFlood flood-opacity="0" result="BackgroundImageFix"/>
<feBlend mode="normal" in="SourceGraphic" in2="BackgroundImageFix" result="shape"/>
<feColorMatrix in="SourceAlpha" type="matrix" values="0 0 0 0 0 0 0 0 0 0 0 0 0 0 0 0 0 0 127 0" result="hardAlpha"/>
<feOffset dx="0.390321"/>
<feGaussianBlur stdDeviation="0.19516"/>
<feComposite in2="hardAlpha" operator="arithmetic" k2="-1" k3="1"/>
<feColorMatrix type="matrix" values="0 0 0 0 0 0 0 0 0 0 0 0 0 0 0 0 0 0 0.1 0"/>
<feBlend mode="normal" in2="shape" result="effect1_innerShadow_1_1027"/>
</filter>
<linearGradient id="paint0_linear_1_1027" x1="6.78584" y1="8.15626" x2="0" y2="8.15626" gradientUnits="userSpaceOnUse">
<stop stop-color="#E3E3E3"/>
<stop offset="1" stop-color="#D0D0D0"/>
</linearGradient>
<linearGradient id="paint1_linear_1_1027" x1="13.5398" y1="8.15626" x2="6.75061" y2="8.15626" gradientUnits="userSpaceOnUse">
<stop stop-color="#E3E3E3"/>
<stop offset="1" stop-color="#D0D0D0"/>
</linearGradient>
<linearGradient id="paint2_linear_1_1027" x1="28.0369" y1="8.14616" x2="17.9457" y2="8.14616" gradientUnits="userSpaceOnUse">
<stop stop-color="#E3E3E3"/>
<stop offset="1" stop-color="#D0D0D0"/>
</linearGradient>
<linearGradient id="paint3_linear_1_1027" x1="48.4082" y1="8.18235" x2="37.3958" y2="8.18235" gradientUnits="userSpaceOnUse">
<stop stop-color="#E3E3E3"/>
<stop offset="1" stop-color="#D0D0D0"/>
</linearGradient>
<linearGradient id="paint4_linear_1_1027" x1="54.6348" y1="8.1896" x2="48.4688" y2="8.1896" gradientUnits="userSpaceOnUse">
<stop stop-color="#E3E3E3"/>
<stop offset="1" stop-color="#D0D0D0"/>
</linearGradient>
<linearGradient id="paint5_linear_1_1027" x1="37.5268" y1="9.60016" x2="29.0404" y2="9.60016" gradientUnits="userSpaceOnUse">
<stop stop-color="#E3E3E3"/>
<stop offset="1" stop-color="#D0D0D0"/>
</linearGradient>
<linearGradient id="paint6_linear_1_1027" x1="63.0326" y1="9.63093" x2="54.1426" y2="9.63093" gradientUnits="userSpaceOnUse">
<stop stop-color="#E3E3E3"/>
<stop offset="1" stop-color="#D0D0D0"/>
</linearGradient>
<linearGradient id="paint7_linear_1_1027" x1="72.6389" y1="9.63494" x2="63.7653" y2="9.63494" gradientUnits="userSpaceOnUse">
<stop stop-color="#E3E3E3"/>
<stop offset="1" stop-color="#D0D0D0"/>
</linearGradient>
</defs>
</svg>
