<svg width="140" height="100" viewBox="0 0 140 100" fill="none" xmlns="http://www.w3.org/2000/svg">
<path d="M0 9.72222C0 4.35556 4.57333 0 10.2083 0H129.792C135.427 0 140 4.35556 140 9.72222V90.2778C140 92.8563 138.924 95.3291 137.01 97.1524C135.096 98.9757 132.499 100 129.792 100H10.2083C7.50092 100 4.90439 98.9757 2.98995 97.1524C1.07552 95.3291 0 92.8563 0 90.2778V9.72222ZM10.2083 8.33333C9.82156 8.33333 9.45063 8.47966 9.17714 8.74013C8.90365 9.0006 8.75 9.35387 8.75 9.72222V90.2778C8.75 91.0444 9.40333 91.6667 10.2083 91.6667H129.792C130.178 91.6667 130.549 91.5203 130.823 91.2599C131.096 90.9994 131.25 90.6461 131.25 90.2778V9.72222C131.25 9.35387 131.096 9.0006 130.823 8.74013C130.549 8.47966 130.178 8.33333 129.792 8.33333H10.2083Z" fill="url(#paint0_linear_189_5794)"/>
<path d="M52.5 30.0889C52.5009 29.5906 52.6424 29.1018 52.9099 28.6736C53.1773 28.2453 53.5607 27.8935 54.02 27.6549C54.4793 27.4163 54.9975 27.2998 55.5203 27.3175C56.0431 27.3352 56.5513 27.4865 56.9917 27.7556L89.5183 47.6611C89.9302 47.9124 90.2691 48.2584 90.5038 48.6671C90.7385 49.0758 90.8615 49.5341 90.8615 50C90.8615 50.4658 90.7385 50.9242 90.5038 51.3329C90.2691 51.7416 89.9302 52.0876 89.5183 52.3389L56.9917 72.25C56.5513 72.519 56.0431 72.6704 55.5203 72.6881C54.9975 72.7058 54.4793 72.5892 54.02 72.3506C53.5607 72.1121 53.1773 71.7602 52.9099 71.332C52.6424 70.9038 52.5009 70.4149 52.5 69.9167V30.0889Z" fill="url(#paint1_linear_189_5794)"/>
<defs>
<linearGradient id="paint0_linear_189_5794" x1="9.31536e-10" y1="57.0988" x2="139.999" y2="56.0779" gradientUnits="userSpaceOnUse">
<stop stop-color="#B3B3B3"/>
<stop offset="1" stop-color="#E6E6E6"/>
</linearGradient>
<linearGradient id="paint1_linear_189_5794" x1="9.31536e-10" y1="57.0988" x2="139.999" y2="56.0779" gradientUnits="userSpaceOnUse">
<stop stop-color="#B3B3B3"/>
<stop offset="1" stop-color="#E6E6E6"/>
</linearGradient>
</defs>
</svg>
