<svg width="105" height="105" viewBox="0 0 105 105" fill="none" xmlns="http://www.w3.org/2000/svg">
<path d="M14.3182 45.3409C14.3182 42.1764 15.5753 39.1415 17.8129 36.9038C20.0506 34.6662 23.0855 33.4091 26.25 33.4091C29.4145 33.4091 32.4494 34.6662 34.6871 36.9038C36.9247 39.1415 38.1818 42.1764 38.1818 45.3409C38.1818 48.5054 36.9247 51.5403 34.6871 53.778C32.4494 56.0156 29.4145 57.2727 26.25 57.2727C23.0855 57.2727 20.0506 56.0156 17.8129 53.778C15.5753 51.5403 14.3182 48.5054 14.3182 45.3409ZM26.25 40.5682C24.9842 40.5682 23.7702 41.071 22.8752 41.9661C21.9801 42.8611 21.4773 44.0751 21.4773 45.3409C21.4773 46.6067 21.9801 47.8207 22.8752 48.7157C23.7702 49.6108 24.9842 50.1136 26.25 50.1136C27.5158 50.1136 28.7298 49.6108 29.6248 48.7157C30.5199 47.8207 31.0227 46.6067 31.0227 45.3409C31.0227 44.0751 30.5199 42.8611 29.6248 41.9661C28.7298 41.071 27.5158 40.5682 26.25 40.5682ZM26.25 66.8182C23.0855 66.8182 20.0506 68.0753 17.8129 70.3129C15.5753 72.5506 14.3182 75.5855 14.3182 78.75C14.3182 81.9145 15.5753 84.9494 17.8129 87.1871C20.0506 89.4247 23.0855 90.6818 26.25 90.6818C29.4145 90.6818 32.4494 89.4247 34.6871 87.1871C36.9247 84.9494 38.1818 81.9145 38.1818 78.75C38.1818 75.5855 36.9247 72.5506 34.6871 70.3129C32.4494 68.0753 29.4145 66.8182 26.25 66.8182ZM21.4773 78.75C21.4773 77.4842 21.9801 76.2702 22.8752 75.3752C23.7702 74.4801 24.9842 73.9773 26.25 73.9773C27.5158 73.9773 28.7298 74.4801 29.6248 75.3752C30.5199 76.2702 31.0227 77.4842 31.0227 78.75C31.0227 80.0158 30.5199 81.2298 29.6248 82.1248C28.7298 83.0199 27.5158 83.5227 26.25 83.5227C24.9842 83.5227 23.7702 83.0199 22.8752 82.1248C21.9801 81.2298 21.4773 80.0158 21.4773 78.75ZM47.7273 44.1477C47.7273 43.1984 48.1044 42.2879 48.7757 41.6166C49.447 40.9453 50.3575 40.5682 51.3068 40.5682H87.1023C88.0516 40.5682 88.9621 40.9453 89.6334 41.6166C90.3047 42.2879 90.6818 43.1984 90.6818 44.1477C90.6818 45.0971 90.3047 46.0076 89.6334 46.6788C88.9621 47.3501 88.0516 47.7273 87.1023 47.7273H51.3068C50.3575 47.7273 49.447 47.3501 48.7757 46.6788C48.1044 46.0076 47.7273 45.0971 47.7273 44.1477ZM51.3068 73.9773C50.3575 73.9773 49.447 74.3544 48.7757 75.0257C48.1044 75.697 47.7273 76.6075 47.7273 77.5568C47.7273 78.5062 48.1044 79.4167 48.7757 80.0879C49.447 80.7592 50.3575 81.1364 51.3068 81.1364H87.1023C88.0516 81.1364 88.9621 80.7592 89.6334 80.0879C90.3047 79.4167 90.6818 78.5062 90.6818 77.5568C90.6818 76.6075 90.3047 75.697 89.6334 75.0257C88.9621 74.3544 88.0516 73.9773 87.1023 73.9773H51.3068ZM14.3182 20.2841C14.3182 19.3347 14.6953 18.4243 15.3666 17.753C16.0379 17.0817 16.9484 16.7045 17.8977 16.7045H87.1023C88.0516 16.7045 88.9621 17.0817 89.6334 17.753C90.3047 18.4243 90.6818 19.3347 90.6818 20.2841C90.6818 21.2334 90.3047 22.1439 89.6334 22.8152C88.9621 23.4865 88.0516 23.8636 87.1023 23.8636H17.8977C16.9484 23.8636 16.0379 23.4865 15.3666 22.8152C14.6953 22.1439 14.3182 21.2334 14.3182 20.2841ZM17.8977 0C13.151 0 8.5986 1.88565 5.24212 5.24212C1.88565 8.5986 0 13.151 0 17.8977V87.1023C0 91.849 1.88565 96.4014 5.24212 99.7579C8.5986 103.114 13.151 105 17.8977 105H87.1023C91.849 105 96.4014 103.114 99.7579 99.7579C103.114 96.4014 105 91.849 105 87.1023V17.8977C105 13.151 103.114 8.5986 99.7579 5.24212C96.4014 1.88565 91.849 0 87.1023 0H17.8977ZM7.15909 17.8977C7.15909 15.0497 8.29048 12.3183 10.3044 10.3044C12.3183 8.29048 15.0497 7.15909 17.8977 7.15909H87.1023C89.9503 7.15909 92.6818 8.29048 94.6956 10.3044C96.7095 12.3183 97.8409 15.0497 97.8409 17.8977V87.1023C97.8409 89.9503 96.7095 92.6818 94.6956 94.6956C92.6818 96.7095 89.9503 97.8409 87.1023 97.8409H17.8977C15.0497 97.8409 12.3183 96.7095 10.3044 94.6956C8.29048 92.6818 7.15909 89.9503 7.15909 87.1023V17.8977Z" fill="url(#paint0_linear_189_5784)"/>
<defs>
<linearGradient id="paint0_linear_189_5784" x1="6.98652e-10" y1="59.9537" x2="105.002" y2="59.4068" gradientUnits="userSpaceOnUse">
<stop stop-color="#B3B3B3"/>
<stop offset="1" stop-color="#E6E6E6"/>
</linearGradient>
</defs>
</svg>
