<svg width="119" height="108" viewBox="0 0 119 108" fill="none" xmlns="http://www.w3.org/2000/svg">
<path d="M34.5217 66.5L44.7461 38.87C45.0028 38.1805 45.4935 37.581 46.1488 37.1563C46.8042 36.7316 47.5912 36.5031 48.3985 36.5031C49.2059 36.5031 49.9928 36.7316 50.6482 37.1563C51.3036 37.581 51.7942 38.1805 52.0509 38.87L62.2754 66.5M78.9276 36.5V66.5M40.0724 56.5H56.7246M15.0941 76.5C15.0941 80.4782 16.8485 84.2936 19.9714 87.1066C23.0943 89.9196 27.3299 91.5 31.7463 91.5C31.7463 94.8152 33.2083 97.9946 35.8107 100.339C38.4131 102.683 41.9428 104 45.6231 104C49.3035 104 52.8332 102.683 55.4356 100.339C58.038 97.9946 59.5 94.8152 59.5 91.5C59.5 94.8152 60.962 97.9946 63.5644 100.339C66.1668 102.683 69.6965 104 73.3768 104C77.0572 104 80.5868 102.683 83.1893 100.339C85.7917 97.9946 87.2537 94.8152 87.2537 91.5C90.2059 91.5002 93.105 90.7935 95.6542 89.4522C98.2033 88.1109 100.311 86.1833 101.761 83.8669C103.211 81.5504 103.951 78.9284 103.905 76.2694C103.86 73.6105 103.031 71.0102 101.502 68.735C105.302 68.0737 108.727 66.2416 111.19 63.5533C113.653 60.865 115 57.4881 115 54.0025C115 50.5169 113.653 47.14 111.19 44.4517C108.727 41.7634 105.302 39.9313 101.502 39.27C103.032 36.9947 103.863 34.3939 103.909 31.7342C103.955 29.0745 103.215 26.4516 101.765 24.1344C100.315 21.8171 98.2067 19.8889 95.6568 18.5474C93.1068 17.2058 90.2067 16.4992 87.2537 16.5C87.2537 13.1848 85.7917 10.0054 83.1893 7.66117C80.5868 5.31696 77.0572 4 73.3768 4C69.6965 4 66.1668 5.31696 63.5644 7.66117C60.962 10.0054 59.5 13.1848 59.5 16.5C59.5 13.1848 58.038 10.0054 55.4356 7.66117C52.8332 5.31696 49.3035 4 45.6231 4C41.9428 4 38.4131 5.31696 35.8107 7.66117C33.2083 10.0054 31.7463 13.1848 31.7463 16.5C28.7941 16.4998 25.895 17.2065 23.3458 18.5478C20.7967 19.8891 18.6892 21.8167 17.2393 24.1331C15.7894 26.4496 15.0493 29.0716 15.0946 31.7306C15.14 34.3895 15.9693 36.9898 17.4976 39.265C13.6983 39.9263 10.2731 41.7584 7.81014 44.4467C5.34715 47.135 4 50.5119 4 53.9975C4 57.4831 5.34715 60.86 7.81014 63.5483C10.2731 66.2366 13.6983 68.0687 17.4976 68.73C15.9239 71.0737 15.0926 73.7609 15.0941 76.5Z" stroke="url(#paint0_linear_189_5788)" stroke-width="6.02592" stroke-linecap="round" stroke-linejoin="round"/>
<defs>
<linearGradient id="paint0_linear_189_5788" x1="4" y1="61.0988" x2="115.002" y2="60.457" gradientUnits="userSpaceOnUse">
<stop stop-color="#B3B3B3"/>
<stop offset="1" stop-color="#E6E6E6"/>
</linearGradient>
</defs>
</svg>
