<svg width="81" height="95" viewBox="0 0 81 95" fill="none" xmlns="http://www.w3.org/2000/svg">
<path fill-rule="evenodd" clip-rule="evenodd" d="M57.321 5.13529L54.54 2.64295C51.2355 -0.318485 45.7773 -0.318485 42.4729 2.64295C41.3363 3.66153 39.3929 3.66153 38.2564 2.64295C34.952 -0.318485 29.4938 -0.318485 26.1893 2.64295L23.4081 5.13549L22.0003 3.09455C21.1943 1.92599 19.4838 1.56429 18.1799 2.28668C16.876 3.00906 16.4724 4.54197 17.2785 5.71052L28.7106 22.2842L28.0974 24.2077C26.0853 29.2653 22.0598 33.8032 16.5983 37.171C4.4674 44.4841 -0.645896 55.7597 0.928243 66.4996C2.50114 77.231 10.7086 87.173 24.5624 91.962C34.8074 95.4934 46.2601 95.5091 56.1828 91.9564C70.0421 87.1599 78.227 77.1315 79.8458 66.3413C81.4662 55.5409 76.4728 44.1726 64.5086 36.8442C59.4226 33.7099 55.6395 29.8807 53.5152 25.1318H61.0895C62.6225 25.1318 63.8651 24.0181 63.8651 22.6443C63.8651 21.2704 62.6225 20.1568 61.0895 20.1568H53.4857L63.4505 5.71052C64.2565 4.54196 63.8529 3.00906 62.549 2.28667C61.2451 1.56429 59.5347 1.92599 58.7286 3.09455L57.321 5.13529ZM34.3311 6.16082C33.1946 5.14225 31.2512 5.14225 30.1146 6.16082L26.4072 9.48342L33.7695 20.1568H46.9595L54.3219 9.48322L50.6147 6.16082C49.4781 5.14225 47.5347 5.14225 46.3982 6.16082C43.0938 9.12226 37.6355 9.12226 34.3311 6.16082ZM33.4112 25.6493L33.5762 25.1318H47.531L47.7879 25.5923C50.2596 32.0985 55.1174 37.0952 61.3669 40.9458L61.3734 40.9498C71.6118 47.2198 75.6843 56.7455 74.3441 65.6783C73.0029 74.6181 66.2053 83.1595 54.1688 87.3203L54.1369 87.3316C45.5599 90.4062 35.5532 90.4195 26.5601 87.3203C14.5082 83.1542 7.72741 74.6887 6.43217 65.8517C5.13875 57.027 9.27325 47.5777 19.708 41.2922L19.7321 41.2775C26.0824 37.3648 30.9229 31.9815 33.3597 25.7938C33.3785 25.7461 33.3957 25.6979 33.4112 25.6493Z" fill="url(#paint0_linear_189_5793)"/>
<path d="M40.3641 43.3735C41.897 43.3735 43.1397 44.4872 43.1397 45.861V46.6902H44.0649C45.5978 46.6902 46.8405 47.8039 46.8405 49.1777C46.8405 50.5515 45.5978 51.6652 44.0649 51.6652H38.5137C37.086 51.6652 35.7381 52.8732 35.7381 54.1527C35.7381 55.4322 37.086 56.6402 38.5137 56.6402H42.2145C46.7081 56.6402 50.5413 60.0756 50.5413 64.1027C50.5413 67.8503 47.2218 71.0854 43.1397 71.5165V72.3944C43.1397 73.7682 41.897 74.8819 40.3641 74.8819C38.8312 74.8819 37.5885 73.7682 37.5885 72.3944V71.5653H36.6633C35.1304 71.5653 33.8877 70.4516 33.8877 69.0777C33.8877 67.7039 35.1304 66.5902 36.6633 66.5902H42.2145C43.6422 66.5902 44.9901 65.3823 44.9901 64.1027C44.9901 62.8232 43.6422 61.6152 42.2145 61.6152H38.5137C34.0201 61.6152 30.1869 58.1798 30.1869 54.1527C30.1869 50.4051 33.5064 47.17 37.5885 46.7389V45.861C37.5885 44.4872 38.8312 43.3735 40.3641 43.3735Z" fill="url(#paint1_linear_189_5793)"/>
<defs>
<linearGradient id="paint0_linear_189_5793" x1="0.650879" y1="54.2054" x2="80.1452" y2="53.856" gradientUnits="userSpaceOnUse">
<stop stop-color="#B3B3B3"/>
<stop offset="1" stop-color="#E6E6E6"/>
</linearGradient>
<linearGradient id="paint1_linear_189_5793" x1="0.650879" y1="54.2054" x2="80.1452" y2="53.856" gradientUnits="userSpaceOnUse">
<stop stop-color="#B3B3B3"/>
<stop offset="1" stop-color="#E6E6E6"/>
</linearGradient>
</defs>
</svg>
